<svg width="29" height="29" viewBox="0 0 29 29" fill="none" xmlns="http://www.w3.org/2000/svg">
<path d="M17.9524 23.4762C17.0313 24.8572 15.881 25.5476 14.5 25.5476C13.1191 25.5476 11.9688 24.8572 11.0477 23.4762M21.5222 21.4048H7.4779C7.07444 21.405 6.67816 21.298 6.32957 21.0949C5.98098 20.8917 5.69257 20.5997 5.49384 20.2486C5.2951 19.8974 5.19316 19.4998 5.19844 19.0964C5.20371 18.693 5.31601 18.2982 5.52385 17.9524C6.87916 15.6935 7.59515 13.1088 7.59528 10.4745V8.9762C7.59528 7.5112 8.17725 6.10619 9.21317 5.07028C10.2491 4.03436 11.6541 3.45239 13.1191 3.45239H15.881C17.346 3.45239 18.751 4.03436 19.7869 5.07028C20.8228 6.10619 21.4048 7.5112 21.4048 8.9762V10.4745C21.4048 13.108 22.1201 15.6945 23.4762 17.9524C23.6841 18.2982 23.7964 18.693 23.8016 19.0964C23.8069 19.4998 23.705 19.8974 23.5062 20.2486C23.3075 20.5997 23.0191 20.8917 22.6705 21.0949C22.3219 21.298 21.9256 21.405 21.5222 21.4048Z" stroke="black" stroke-linecap="round" stroke-linejoin="round"/>
</svg>
