<svg width="17" height="16" viewBox="0 0 17 16" fill="none" xmlns="http://www.w3.org/2000/svg">
<path d="M16.3929 1.45455H13.3571V0.181818C13.3571 0.0818182 13.2888 0 13.2054 0H12.1429C12.0594 0 11.9911 0.0818182 11.9911 0.181818V1.45455H9.18304V0.181818C9.18304 0.0818182 9.11473 0 9.03125 0H7.96875C7.88527 0 7.81696 0.0818182 7.81696 0.181818V1.45455H5.00893V0.181818C5.00893 0.0818182 4.94063 0 4.85714 0H3.79464C3.71116 0 3.64286 0.0818182 3.64286 0.181818V1.45455H0.607143C0.271317 1.45455 0 1.77955 0 2.18182V15.2727C0 15.675 0.271317 16 0.607143 16H16.3929C16.7287 16 17 15.675 17 15.2727V2.18182C17 1.77955 16.7287 1.45455 16.3929 1.45455ZM15.6339 14.3636H1.36607V3.09091H3.64286V4.36364C3.64286 4.46364 3.71116 4.54545 3.79464 4.54545H4.85714C4.94063 4.54545 5.00893 4.46364 5.00893 4.36364V3.09091H7.81696V4.36364C7.81696 4.46364 7.88527 4.54545 7.96875 4.54545H9.03125C9.11473 4.54545 9.18304 4.46364 9.18304 4.36364V3.09091H11.9911V4.36364C11.9911 4.46364 12.0594 4.54545 12.1429 4.54545H13.2054C13.2888 4.54545 13.3571 4.46364 13.3571 4.36364V3.09091H15.6339V14.3636ZM6.67857 7.63636H3.1875C3.10402 7.63636 3.03571 7.71818 3.03571 7.81818V8.90909C3.03571 9.00909 3.10402 9.09091 3.1875 9.09091H6.67857C6.76205 9.09091 6.83036 9.00909 6.83036 8.90909V7.81818C6.83036 7.71818 6.76205 7.63636 6.67857 7.63636ZM6.67857 10.7273H3.1875C3.10402 10.7273 3.03571 10.8091 3.03571 10.9091V12C3.03571 12.1 3.10402 12.1818 3.1875 12.1818H6.67857C6.76205 12.1818 6.83036 12.1 6.83036 12V10.9091C6.83036 10.8091 6.76205 10.7273 6.67857 10.7273ZM12.5261 6.69545L10.5605 9.96136L9.55871 8.3C9.50179 8.20455 9.41072 8.15 9.31395 8.15H8.27232C8.149 8.15 8.0769 8.31818 8.149 8.43863L10.3138 12.0341C10.3418 12.0806 10.3786 12.1184 10.4211 12.1445C10.4637 12.1706 10.5108 12.1842 10.5586 12.1842C10.6064 12.1842 10.6535 12.1706 10.6961 12.1445C10.7386 12.1184 10.7754 12.0806 10.8033 12.0341L13.9339 6.83636C14.006 6.71591 13.9339 6.54773 13.8106 6.54773H12.769C12.6741 6.54545 12.583 6.60227 12.5261 6.69545Z" fill="#1E1E1E"/>
</svg>
